<?xml version="1.0" encoding="UTF-8" standalone="no"?>
<!-- Created with Inkscape (http://www.inkscape.org/) -->

<svg
   xmlns:dc="http://purl.org/dc/elements/1.1/"
   xmlns:cc="http://creativecommons.org/ns#"
   xmlns:rdf="http://www.w3.org/1999/02/22-rdf-syntax-ns#"
   xmlns:svg="http://www.w3.org/2000/svg"
   xmlns="http://www.w3.org/2000/svg"
   xmlns:sodipodi="http://sodipodi.sourceforge.net/DTD/sodipodi-0.dtd"
   xmlns:inkscape="http://www.inkscape.org/namespaces/inkscape"
   width="210mm"
   height="297mm"
   viewBox="0 0 744.09448819 1052.3622047"
   id="svg2"
   version="1.1"
   inkscape:version="0.91 r13725"
   sodipodi:docname="achievement-first.svg">
  <defs
     id="defs4" />
  <sodipodi:namedview
     id="base"
     pagecolor="#ffffff"
     bordercolor="#666666"
     borderopacity="1.0"
     inkscape:pageopacity="0.0"
     inkscape:pageshadow="2"
     inkscape:zoom="1.979899"
     inkscape:cx="244.3328"
     inkscape:cy="540.44077"
     inkscape:document-units="px"
     inkscape:current-layer="layer1"
     showgrid="false"
     inkscape:window-width="1280"
     inkscape:window-height="985"
     inkscape:window-x="1280"
     inkscape:window-y="0"
     inkscape:window-maximized="1" />
  <metadata
     id="metadata7">
    <rdf:RDF>
      <cc:Work
         rdf:about="">
        <dc:format>image/svg+xml</dc:format>
        <dc:type
           rdf:resource="http://purl.org/dc/dcmitype/StillImage" />
        <dc:title></dc:title>
      </cc:Work>
    </rdf:RDF>
  </metadata>
  <g
     inkscape:label="Calque 1"
     inkscape:groupmode="layer"
     id="layer1">
    <g
       id="g4154"
       transform="matrix(0.99144879,0,0,1.0173443,0.9125716,-4.4012032)"
       inkscape:export-xdpi="191.63631"
       inkscape:export-ydpi="191.63631">
      <path
         inkscape:connector-curvature="0"
         id="path3336"
         d="M 260.21914,486.41012 124.80992,449.06099 105.74808,326.48693 208.15774,254.41826 313.52915,299.036 l 30.3162,108.43652 -39.85056,34.1021"
         style="fill:none;fill-rule:evenodd;stroke:#000000;stroke-width:4;stroke-linecap:butt;stroke-linejoin:miter;stroke-miterlimit:4;stroke-dasharray:none;stroke-opacity:1" />
      <path
         inkscape:connector-curvature="0"
         d="m 116.16544,378.55532 c 5.26356,-5.16846 9.42562,-11.3181 13.79978,-17.22484 5.51779,-7.46749 10.44154,-15.33715 15.55444,-23.07865 3.95258,-5.65419 8.35382,-10.94006 11.66884,-17.0112 2.44205,-4.52861 4.71588,-9.12339 6.78898,-13.83158 4.66637,-11.69343 -3.50215,-3.24056 27.97831,-15.98453 0.57061,-0.231 0.90231,6.84741 0.91279,7.13288 0.38638,6.60211 -0.38158,13.11448 -1.63416,19.57995 -1.58693,7.32597 -2.77105,14.70961 -3.93087,22.1111 -0.86187,7.29526 -2.40413,14.42879 -4.49773,21.46197 -2.0986,6.78436 -4.69068,13.41277 -7.66989,19.85612 -4.00443,7.47382 -7.27321,15.25285 -10.1732,23.20822 -1.9531,6.29225 -4.39846,12.42402 -6.33174,18.71967 -1.83821,-3.4911 -0.0103,4.95684 -0.77276,3.88061 -0.41373,-0.58399 0.23197,-2.39369 -0.42293,-2.10502 -8.53149,3.76056 -16.32102,9.03213 -24.67673,13.16858 -0.82914,0.41046 1.37808,-1.24117 1.98815,-1.9367 0.76594,-0.87323 1.41984,-1.8387 2.12976,-2.75806 5.34863,-8.20657 9.17041,-17.30899 13.16325,-26.22648 3.3106,-9.16462 7.44299,-17.9212 12.50872,-26.23288 4.56486,-7.78006 9.52536,-15.31007 14.30955,-22.95479 4.43302,-6.87347 8.08535,-14.20564 11.97573,-21.39007 4.03632,-6.70579 7.37028,-13.78198 11.01685,-20.69453 2.56436,-4.3595 4.9009,-8.87859 7.67025,-13.11636 0.40842,-0.62499 0.66612,-1.43134 1.30207,-1.82248 8.74306,-5.37731 17.78307,-10.25616 26.67461,-15.38423 0.55292,0.47341 1.24405,0.82203 1.65876,1.42025 2.74383,3.95796 0.53158,10.53399 -0.326,14.71846 -1.51746,8.19982 -4.13225,16.12679 -6.40805,24.13282 -2.28007,7.82748 -4.31298,15.72376 -6.42317,23.59819 -2.08194,6.9714 -4.39994,13.83057 -5.74548,20.99257 -1.11417,6.0387 -2.41893,12.03943 -3.57393,18.0698 -1.09237,5.76562 -1.95055,11.57622 -3.03781,17.34139 -1.05917,5.41258 -2.37104,10.77392 -3.38923,16.19437 -0.13187,0.84743 -0.28333,1.69205 -0.39562,2.5423 -0.32876,2.48928 -0.53415,5.0271 -0.7569,7.52746 -0.0982,1.10266 0.0617,1.74314 -0.11445,0.87646 -8.81038,4.19331 -17.62076,8.38662 -26.43114,12.57993 0.4072,-0.41376 0.85988,-0.78723 1.22159,-1.24129 3.01487,-3.78469 5.45612,-8.13098 8.11652,-12.16275 5.81983,-8.06767 10.01164,-17.10177 14.49893,-25.93586 6.05114,-11.36661 10.67549,-23.39209 16.0799,-35.05811 4.1375,-8.21115 8.80552,-16.13589 13.22506,-24.19727 3.32443,-6.84579 7.0314,-13.4987 10.10556,-20.46326 8.24853,-18.97666 5.29329,-11.86635 33.13988,-26.16893 3.33632,5.31629 1.34239,11.73575 0.4667,17.52651 -1.18215,8.43913 -4.25076,16.38664 -7.55775,24.18085 -3.10584,8.18275 -6.64464,16.18917 -9.91036,24.30577 -2.54831,7.88554 -5.45092,15.64896 -8.2193,23.45833 -2.30421,7.0427 -4.01666,14.28439 -5.18553,21.59991 -1.28904,5.95993 -1.98436,12.01048 -2.86862,18.03353 -0.16557,0.93487 -0.33803,1.86854 -0.49671,2.80459 -1.46804,8.65964 0.62713,-3.22907 -0.99076,5.43707 -0.119,0.6374 -0.24237,1.27525 -0.31469,1.91962 -0.0236,0.21022 0.0985,0.83346 0.0281,0.63399 -0.26888,-0.76155 -0.42016,-1.55964 -0.63023,-2.33946 -46.01654,25.02911 -27.03431,17.74516 -20.13862,9.57147 3.11748,-3.69524 5.63341,-7.90107 8.32341,-11.90406 7.53028,-9.08154 13.48723,-19.23248 19.91165,-29.07766 5.37796,-7.7224 10.38175,-15.69968 15.72781,-23.44144 4.48261,-5.70199 8.82571,-11.48159 12.91454,-17.47103 3.83031,-4.7928 7.50338,-9.7025 11.24641,-14.56392 6.80268,-8.29032 28.72694,-27.74143 30.32856,-13.87119 0.0607,0.52589 -1.2167,3.86847 -1.26432,4.00121 -2.73057,6.596 -5.98609,12.96441 -9.09388,19.39013 -3.28209,6.49809 -6.2331,13.15557 -9.54504,19.63812 -3.61642,6.14353 -6.7393,12.54383 -10.01953,18.86741 -3.38155,6.20464 -6.76291,12.41703 -9.67761,18.85673 -2.63297,6.03295 -5.43334,11.98803 -8.07617,18.01705 -1.31798,3.10776 -2.69499,6.19032 -4.16041,9.23117 0,0 -27.06024,12.11009 -27.06024,12.11009 l 0,0 c 1.80449,-2.86474 3.08925,-6.01449 4.45195,-9.11092 2.82519,-5.99537 5.44092,-12.09383 8.32505,-18.0622 2.67454,-6.57847 6.00456,-12.88339 9.54922,-19.03324 3.27898,-6.32019 6.26277,-12.7805 9.96548,-18.86839 3.50077,-6.39682 6.33817,-13.11695 9.68929,-19.58926 3.03226,-6.25695 6.10913,-12.49952 8.80849,-18.90342 0.2363,-0.67362 0.4811,-1.34431 0.70888,-2.02085 0.14264,-0.42365 -0.0427,-1.23611 0.40223,-1.2793 0.54344,-0.0528 0.69816,1.35992 1.19087,1.12464 8.85285,-4.22745 17.2992,-9.26044 25.86428,-14.04413 0.44185,-0.24678 -1.02798,0.15186 -1.46063,0.41444 -0.70718,0.42918 -1.25597,1.07692 -1.88396,1.61538 -4.01568,4.6082 -7.11993,9.93004 -11.32997,14.39303 -4.4062,5.86598 -8.30196,12.12379 -13.22954,17.60782 -5.66426,7.61779 -10.47933,15.8548 -16.10836,23.50866 -6.63911,9.64616 -12.20511,20.02461 -19.7854,29.02505 -3.18094,4.74168 -2.4159,3.51734 -5.3827,8.2638 -0.45849,0.73353 -4.94517,7.8042 -5.86498,8.35837 -8.95711,5.39648 -18.23205,10.24695 -27.34807,15.37042 -0.68333,-0.69344 -1.54424,-1.24844 -2.05,-2.08031 -0.74683,-1.22838 2.15747,-9.57274 1.97456,-11.55977 1.18807,-5.9929 1.49153,-12.15353 3.06227,-18.08931 1.19319,-7.48207 2.91747,-14.87642 5.07168,-22.13924 2.80155,-7.85867 5.97252,-15.59801 8.30765,-23.60762 3.15785,-8.18611 6.92519,-16.13094 9.8914,-24.39765 3.29258,-7.52666 6.46701,-15.1885 7.67487,-23.37407 0.54523,-4.22284 1.96346,-9.13137 1.07913,-13.35649 8.41567,-4.78884 16.86873,-9.51256 25.24701,-14.36653 0.459,-0.26592 -1.08937,0.23168 -1.47608,0.5948 -2.64835,2.48681 -3.66389,7.71076 -5.67569,10.68586 -3.05485,7.0426 -6.73101,13.78515 -10.02503,20.71638 -4.5189,8.19243 -9.39057,16.15993 -13.93625,24.3361 -5.65574,11.51357 -10.1072,23.566 -15.87558,35.03089 -4.40378,8.84249 -8.33421,17.97754 -14.02737,26.09525 -2.09474,3.17821 -4.01918,6.43724 -6.0456,9.65731 -0.45901,0.72941 -0.99219,1.41448 -1.39906,2.17421 -0.29638,0.55339 -0.15063,1.44655 -0.70139,1.74779 -9.02032,4.93368 -18.40993,9.1599 -27.61489,13.73985 -0.71076,-1.86055 0.003,-3.00879 0.24234,-5.00112 0.31305,-2.60505 0.23564,-5.26296 0.7094,-7.85436 0.99509,-5.46154 2.49164,-10.80829 3.37162,-16.2905 1.41798,-5.6831 2.10647,-11.56114 3.1558,-17.32009 1.17636,-6.03891 2.41125,-12.06337 3.70676,-18.07662 1.18685,-7.3049 3.51312,-14.25175 5.76097,-21.2847 2.10162,-7.90687 4.30251,-15.78906 6.4991,-23.67068 2.17425,-7.94174 5.00801,-15.73644 6.33711,-23.88208 0.90009,-4.26186 0.5958,-2.40908 1.14035,-6.50866 0.10879,-0.81904 0.26158,-1.63391 0.31792,-2.45822 0.0392,-0.57399 -0.0698,-1.1516 -0.0319,-1.72568 0.007,-0.10477 0.16789,-0.37415 0.16349,-0.26925 -0.008,0.1791 -0.1157,0.33933 -0.17355,0.509 8.07895,-4.83067 16.15791,-9.66134 24.23687,-14.49201 -0.58777,0.49888 -1.25563,0.91646 -1.76331,1.49665 -3.32647,3.80154 -5.1497,8.82888 -7.97108,12.97023 -3.77744,6.83147 -6.86238,14.03718 -10.959,20.70375 -4.08205,7.19703 -7.61231,14.72107 -12.17814,21.63434 -4.70656,7.67341 -9.65238,15.19519 -14.25462,22.93165 -5.17258,8.19994 -9.77337,16.69669 -12.84539,25.94095 -3.88257,8.96167 -7.90022,17.8994 -12.45269,26.53959 -7.88354,12.34892 -7.8008,10.27332 -30.78367,20.68474 -0.88545,0.40111 -1.52809,-1.32019 -1.88656,-2.22374 -0.55714,-1.4043 1.86664,-3.10403 0.952,-4.43123 1.85115,-6.46556 4.61589,-12.60248 6.55163,-19.04618 3.03504,-7.94775 5.90961,-15.95643 10.06895,-23.41729 2.98558,-6.31159 5.44632,-12.82502 7.67249,-19.44328 2.34635,-6.87948 3.92137,-13.92109 4.82959,-21.13524 1.20744,-7.38171 2.12205,-14.80521 3.72038,-22.12078 1.23139,-6.22625 2.40373,-12.45383 1.73252,-18.83972 -0.004,-0.0727 -0.5425,-4.66248 -0.26684,-4.81567 8.68848,-4.82797 17.51487,-9.4037 26.24332,-14.15902 0.2662,-0.14503 -0.64954,0.0966 -0.84963,0.32436 -0.39218,0.44638 -0.54939,1.05376 -0.82409,1.58064 -2.0007,4.86854 -4.3426,9.55677 -6.91986,14.14487 -3.15726,6.33859 -7.39089,11.90636 -11.78672,17.43343 -5.34625,7.67853 -10.22579,15.67136 -15.72056,23.25061 -4.11702,5.79776 -8.17872,11.6356 -12.58443,17.21471 0,0 -27.71815,11.48123 -27.71815,11.48123 z"
         id="path4152"
         style="fill:#00cc00;stroke-width:4;stroke-miterlimit:4;stroke-dasharray:none" />
    </g>
  </g>
</svg>
